<svg width="32" height="32" viewBox="0 0 32 32" fill="none" xmlns="http://www.w3.org/2000/svg">
  <path
    d="M16 0.5C7.18 0.5 0 6.78 0 14.5C0 22.22 7.18 28.5 16 28.5C17.6501 28.4981 19.2922 28.2693 20.88 27.82L26.41 31.34C26.561 31.4369 26.7352 31.4913 26.9145 31.4977C27.0937 31.5041 27.2714 31.4621 27.4289 31.3762C27.5863 31.2903 27.7178 31.1637 27.8095 31.0095C27.9012 30.8554 27.9497 30.6794 27.95 30.5V23.77C29.2012 22.5697 30.1997 21.1312 30.8867 19.5392C31.5736 17.9472 31.9352 16.2338 31.95 14.5C32 6.78 24.82 0.5 16 0.5ZM14.93 7.13C14.9136 6.93553 14.9377 6.73977 15.0009 6.5551C15.064 6.37044 15.1648 6.2009 15.2969 6.05721C15.4289 5.91352 15.5894 5.79881 15.7681 5.72034C15.9468 5.64188 16.1398 5.60136 16.335 5.60136C16.5302 5.60136 16.7232 5.64188 16.9019 5.72034C17.0806 5.79881 17.2411 5.91352 17.3731 6.05721C17.5052 6.2009 17.606 6.37044 17.6691 6.5551C17.7323 6.73977 17.7564 6.93553 17.74 7.13V16.9C17.7564 17.0945 17.7323 17.2902 17.6691 17.4749C17.606 17.6596 17.5052 17.8291 17.3731 17.9728C17.2411 18.1165 17.0806 18.2312 16.9019 18.3097C16.7232 18.3881 16.5302 18.4286 16.335 18.4286C16.1398 18.4286 15.9468 18.3881 15.7681 18.3097C15.5894 18.2312 15.4289 18.1165 15.2969 17.9728C15.1648 17.8291 15.064 17.6596 15.0009 17.4749C14.9377 17.2902 14.9136 17.0945 14.93 16.9V7.13ZM16.34 24.48C15.9701 24.48 15.6086 24.3703 15.3011 24.1648C14.9936 23.9594 14.7539 23.6673 14.6123 23.3256C14.4708 22.9839 14.4338 22.6079 14.5059 22.2452C14.5781 21.8824 14.7562 21.5492 15.0177 21.2877C15.2792 21.0262 15.6124 20.8481 15.9752 20.7759C16.3379 20.7038 16.7139 20.7408 17.0556 20.8823C17.3973 21.0239 17.6894 21.2636 17.8948 21.5711C18.1003 21.8786 18.21 22.2401 18.21 22.61C18.2074 23.1042 18.0092 23.5773 17.6588 23.9258C17.3084 24.2744 16.8342 24.47 16.34 24.47V24.48Z"
    fill="black" />
</svg>